<?xml version="1.0" standalone="no"?>
<!DOCTYPE svg PUBLIC "-//W3C//DTD SVG 20010904//EN"
 "http://www.w3.org/TR/2001/REC-SVG-20010904/DTD/svg10.dtd">
<svg version="1.0" xmlns="http://www.w3.org/2000/svg"
 width="512.000000pt" height="512.000000pt" viewBox="0 0 512.000000 512.000000"
 preserveAspectRatio="xMidYMid meet">

<g transform="translate(0.000000,512.000000) scale(0.100000,-0.100000)"
fill="#000000" stroke="none">
<path d="M2355 5110 c-614 -54 -1165 -311 -1600 -745 -644 -642 -897 -1566
-670 -2450 81 -316 235 -635 435 -899 354 -468 856 -800 1421 -940 210 -52
319 -66 554 -73 451 -12 830 73 1227 274 690 349 1197 1014 1347 1769 43 217
55 356 48 589 -7 226 -22 337 -73 544 -224 904 -939 1626 -1839 1856 -258 66
-603 97 -850 75z m1764 -944 c54 -29 65 -59 69 -193 4 -109 2 -127 -17 -167
-25 -50 -67 -76 -125 -76 l-36 0 0 -939 0 -938 50 -7 c60 -8 105 -43 121 -95
6 -21 9 -86 7 -153 -3 -131 -15 -158 -79 -190 -31 -17 -89 -18 -766 -18 l-733
0 0 -57 c0 -56 1 -59 37 -78 99 -54 118 -190 37 -271 -77 -76 -199 -63 -267
27 -24 34 -33 106 -18 152 12 34 80 107 101 107 6 0 10 27 10 60 l0 60 -731 0
c-809 0 -780 -2 -820 64 -26 43 -28 283 -3 326 22 36 62 59 118 66 l46 7 0
938 0 939 -42 0 c-25 0 -57 8 -75 20 -53 32 -63 63 -63 205 0 142 10 173 63
205 31 20 62 20 1560 20 1315 0 1532 -2 1556 -14z"/>
<path d="M1044 4067 c-2 -7 -3 -62 -2 -123 l3 -109 1510 -3 c1411 -2 1511 -1
1523 15 15 21 17 186 2 214 -11 19 -38 19 -1521 19 -1238 0 -1511 -2 -1515
-13z"/>
<path d="M1220 2790 l0 -940 1345 0 1345 0 0 940 0 940 -1345 0 -1345 0 0
-940z m574 853 c6 -11 25 -28 43 -37 67 -32 97 -130 49 -161 -30 -20 -55 -10
-72 29 l-13 31 -1 -36 c0 -31 5 -37 35 -52 98 -47 99 -189 2 -242 -18 -9 -38
-27 -43 -39 -7 -16 -18 -21 -44 -21 -26 0 -37 5 -44 21 -5 12 -25 30 -43 39
-41 22 -73 72 -73 113 0 31 22 62 43 62 22 0 56 -30 60 -53 3 -14 5 -10 6 13
1 31 -4 38 -34 54 -20 11 -44 34 -55 51 -41 66 -15 153 55 191 19 10 35 23 35
29 0 39 78 46 94 8z m1867 -53 c22 -12 26 -59 7 -78 -17 -17 -899 -17 -916 0
-17 17 -15 48 5 70 15 17 42 18 450 18 280 0 441 -4 454 -10z m7 -172 c7 -7
12 -24 12 -38 0 -14 -5 -31 -12 -38 -9 -9 -124 -12 -454 -12 -389 0 -444 2
-458 16 -19 18 -21 55 -4 72 17 17 899 17 916 0z m-10 -164 c23 -16 28 -48 12
-74 -8 -13 -71 -15 -446 -18 -476 -3 -484 -2 -484 53 0 54 7 55 470 55 369 0
429 -2 448 -16z m-1287 -164 c22 -13 26 -62 5 -79 -9 -8 -140 -10 -467 -9
l-454 3 -9 27 c-8 22 -6 32 9 48 18 20 29 20 457 20 284 0 446 -4 459 -10z
m570 -28 c103 -50 179 -153 194 -263 10 -66 -5 -89 -55 -89 -36 0 -40 -3 -58
-43 -21 -48 -70 -100 -114 -123 -49 -25 -131 -29 -184 -9 -208 79 -209 367 -1
444 22 9 27 17 27 45 0 53 23 69 89 64 31 -2 77 -14 102 -26z m727 -84 c19
-19 15 -66 -7 -78 -11 -6 -87 -10 -175 -10 -127 0 -157 3 -170 16 -19 18 -21
55 -4 72 17 17 339 17 356 0z m-1290 -50 c19 -19 15 -66 -7 -78 -13 -6 -175
-10 -457 -10 -393 0 -439 2 -456 17 -22 20 -23 46 -2 67 14 14 69 16 463 16
334 0 450 -3 459 -12z m1283 -108 c22 -12 26 -59 7 -78 -8 -8 -62 -12 -178
-12 -175 0 -190 4 -190 46 0 48 20 54 186 54 88 0 164 -4 175 -10z m-1283 -52
c17 -17 15 -54 -4 -72 -14 -14 -68 -16 -452 -16 -380 0 -440 2 -460 16 -24 17
-28 35 -12 65 10 18 26 19 463 19 339 0 456 -3 465 -12z m1290 -120 c19 -19
15 -66 -7 -78 -11 -5 -86 -10 -171 -10 -85 0 -160 5 -171 10 -22 12 -26 59 -7
78 17 17 339 17 356 0z m-2020 -10 c9 -9 12 -82 12 -265 l0 -253 315 0 315 0
16 -25 c15 -23 15 -27 0 -50 l-16 -25 -315 0 -315 0 0 -50 c0 -38 -4 -52 -19
-60 -48 -25 -81 1 -81 66 l0 44 -44 0 c-48 0 -76 19 -76 50 0 31 28 50 76 50
l44 0 0 253 c0 270 1 277 50 277 14 0 31 -5 38 -12z m552 -158 c14 -14 20 -33
20 -68 0 -66 -31 -101 -71 -81 -12 6 -28 -5 -63 -46 -58 -67 -76 -69 -155 -16
l-58 40 -64 -65 c-35 -35 -72 -64 -83 -64 -23 0 -56 28 -56 47 0 18 159 191
183 199 12 4 41 -10 83 -37 l65 -42 29 28 c23 22 27 33 23 60 -4 26 -1 36 18
49 33 23 104 21 129 -4z m1468 -92 c19 -19 15 -66 -7 -78 -13 -6 -230 -10
-635 -10 -545 0 -616 2 -630 16 -19 18 -21 55 -4 72 17 17 1259 17 1276 0z
m-7 -158 c22 -12 26 -59 7 -78 -9 -9 -133 -12 -494 -12 -425 0 -484 2 -498 16
-20 19 -20 34 0 62 l15 22 475 0 c309 0 482 -4 495 -10z"/>
<path d="M1691 3484 c0 -11 3 -14 6 -6 3 7 2 16 -1 19 -3 4 -6 -2 -5 -13z"/>
<path d="M1801 3294 c0 -11 3 -14 6 -6 3 7 2 16 -1 19 -3 4 -6 -2 -5 -13z"/>
<path d="M2850 2895 l0 -85 90 0 c50 0 90 2 90 5 0 9 -38 78 -52 96 -21 26
-89 69 -109 69 -17 0 -19 -9 -19 -85z"/>
<path d="M2705 2850 c-38 -39 -46 -120 -17 -166 20 -32 75 -64 110 -64 48 0
122 47 122 77 0 10 -19 13 -75 13 -89 0 -95 6 -95 104 0 36 -4 66 -8 66 -5 0
-21 -13 -37 -30z"/>
<path d="M1047 1733 c-13 -12 -8 -218 5 -231 9 -9 358 -12 1509 -12 1348 0
1499 2 1513 16 12 12 16 37 16 109 0 51 -3 100 -6 109 -6 15 -149 16 -1518 16
-832 0 -1516 -3 -1519 -7z"/>
<path d="M2515 1155 c-46 -45 -19 -118 43 -118 43 0 72 28 72 70 0 67 -68 96
-115 48z"/>
</g>
</svg>
