<?xml version="1.0" standalone="no"?>
<!DOCTYPE svg PUBLIC "-//W3C//DTD SVG 20010904//EN"
 "http://www.w3.org/TR/2001/REC-SVG-20010904/DTD/svg10.dtd">
<svg version="1.0" xmlns="http://www.w3.org/2000/svg"
     width="512.000000pt" height="512.000000pt" viewBox="0 0 512.000000 512.000000"
     preserveAspectRatio="xMidYMid meet">

    <g transform="translate(0.000000,512.000000) scale(0.100000,-0.100000)"
       fill="#000000" stroke="none">
        <path d="M1867 4849 c-419 -44 -772 -353 -889 -777 -18 -65 -22 -105 -22 -257
            0 -167 2 -187 27 -270 15 -49 49 -135 76 -190 l50 -100 -21 -22 c-15 -16 -28
            -21 -48 -16 -65 12 -96 -10 -334 -246 -125 -124 -234 -240 -242 -258 -19 -45
            -17 -97 5 -141 10 -20 73 -89 138 -154 94 -92 128 -119 161 -128 89 -23 95
            -19 350 234 129 127 240 243 248 258 8 15 14 47 14 71 0 33 6 49 24 66 23 22
            25 22 50 6 l25 -17 3 -1256 c3 -1252 3 -1257 24 -1302 26 -57 100 -125 150
            -139 27 -8 416 -11 1235 -11 1321 0 1248 -3 1317 63 70 67 77 88 82 247 l5
            145 126 5 c118 5 129 7 175 35 66 41 110 115 119 198 3 34 5 784 3 1667 l-3
            1605 -27 50 c-31 59 -57 84 -118 116 l-45 24 -826 5 -826 5 -62 82 c-173 229
            -431 371 -731 403 -105 11 -103 11 -213 -1z m310 -174 c336 -78 599 -344 670
            -679 22 -106 20 -272 -6 -381 -139 -582 -804 -857 -1318 -545 -106 65 -128 65
            -194 3 l-50 -46 -39 38 c-22 22 -40 44 -40 50 0 6 20 31 45 55 59 58 58 79 -5
            183 -91 150 -130 290 -130 465 0 161 32 284 106 421 134 245 377 412 655 451
            79 11 224 4 306 -15z m2350 -508 l28 -27 3 -1603 c1 -881 0 -1617 -3 -1636 -4
            -18 -17 -44 -30 -57 -22 -22 -32 -24 -130 -24 l-105 0 0 1440 c0 1271 -2 1445
            -15 1477 -25 59 -59 96 -116 128 l-54 30 -541 3 -541 3 -12 79 c-7 44 -21 106
            -31 138 -11 31 -20 63 -20 70 0 10 151 12 770 10 l770 -3 27 -28z m-447 -442
            c16 -8 34 -24 40 -34 7 -13 10 -551 10 -1649 l0 -1629 -26 -27 -27 -26 -1184
            0 c-829 0 -1190 3 -1205 11 -49 26 -48 -6 -48 1269 0 654 4 1190 8 1190 5 0
            44 -9 88 -21 103 -26 284 -36 395 -20 347 51 658 283 800 596 37 83 76 217 85
            294 l7 61 514 0 c439 0 518 -2 543 -15z m-3060 -1080 l-205 -205 -105 105
            -105 105 205 205 205 205 105 -105 105 -105 -205 -205z" />
        <path d="M1850 4495 c-146 -32 -263 -99 -366 -208 -80 -84 -134 -179 -165
            -292 -29 -106 -24 -296 10 -395 34 -100 97 -198 176 -275 135 -132 260 -186
            450 -193 146 -5 224 11 345 70 68 34 102 59 170 128 94 94 142 173 181 300 30
            96 32 261 5 360 -65 241 -255 432 -492 495 -85 23 -235 28 -314 10z m314 -178
            c236 -86 383 -327 348 -571 -30 -208 -180 -381 -381 -440 -127 -37 -307 -14
            -416 55 -162 101 -255 264 -257 449 -4 371 360 632 706 507z" />
        <path d="M3391 3174 c-19 -24 -21 -40 -21 -171 0 -139 1 -145 25 -168 15 -16
            36 -25 55 -25 19 0 40 9 55 25 24 23 25 29 25 168 0 131 -2 147 -21 171 -16
            20 -29 26 -59 26 -30 0 -43 -6 -59 -26z" />
        <!-- Additional <path> tags continue here with similar indentation -->
    </g>
</svg>
