<?xml version="1.0" standalone="no"?>
<!DOCTYPE svg PUBLIC "-//W3C//DTD SVG 20010904//EN"
 "http://www.w3.org/TR/2001/REC-SVG-20010904/DTD/svg10.dtd">
<svg version="1.0" xmlns="http://www.w3.org/2000/svg"
 width="640.000000pt" height="640.000000pt" viewBox="0 0 640.000000 640.000000"
 preserveAspectRatio="xMidYMid meet">

<g transform="translate(0.000000,640.000000) scale(0.100000,-0.100000)"
fill="#000000" stroke="none">
<path d="M2110 5574 c-96 -25 -161 -64 -236 -138 -76 -76 -114 -142 -139 -242
-14 -54 -15 -284 -13 -2030 l3 -1969 22 -57 c57 -150 164 -257 318 -319 l60
-24 1047 -3 c916 -2 1056 -1 1114 13 178 41 322 175 377 349 l22 71 0 1970 0
1970 -23 67 c-61 176 -198 301 -374 343 -93 22 -2095 21 -2178 -1z m2207 -168
c70 -32 148 -107 183 -177 15 -27 25 -69 28 -111 l5 -68 -1333 0 -1333 0 7 55
c18 155 123 280 266 319 47 13 202 15 1085 13 l1030 -2 62 -29z m211 -2213
l-3 -1708 -1325 0 -1325 0 -3 1695 c-1 932 0 1701 3 1708 3 9 279 12 1330 12
l1325 0 -2 -1707z m0 -1926 c-7 -87 -40 -157 -102 -215 -64 -61 -113 -87 -191
-101 -78 -15 -1989 -15 -2065 -1 -157 30 -277 161 -296 323 l-7 57 1333 0
1333 0 -5 -63z"/>
<path d="M2841 1184 c-24 -30 -26 -43 -10 -77 20 -44 41 -47 378 -47 307 0
319 1 345 21 20 16 26 29 26 59 0 70 1 70 -381 70 l-338 0 -20 -26z"/>
</g>
</svg>
