<?xml version="1.0" standalone="no"?>
<!DOCTYPE svg PUBLIC "-//W3C//DTD SVG 20010904//EN"
 "http://www.w3.org/TR/2001/REC-SVG-20010904/DTD/svg10.dtd">
<svg version="1.0" xmlns="http://www.w3.org/2000/svg"
 width="512.000000pt" height="512.000000pt" viewBox="0 0 512.000000 512.000000"
 preserveAspectRatio="xMidYMid meet">

<g transform="translate(0.000000,512.000000) scale(0.100000,-0.100000)"
fill="#000000" stroke="none">
<path d="M0 3160 l0 -1650 1015 0 1014 0 3 -148 3 -147 75 0 75 0 3 148 3 147
369 0 370 0 0 -375 0 -375 -370 0 -370 0 0 150 0 150 -80 0 -80 0 0 -149 0
-149 -117 -4 c-145 -5 -212 -31 -291 -111 -70 -72 -103 -147 -110 -253 l-5
-84 1053 0 1053 0 -5 84 c-7 106 -40 181 -110 253 -79 80 -146 106 -290 111
l-118 4 0 374 0 374 1015 0 1015 0 0 1650 0 1650 -1955 0 -1955 0 0 -75 0 -75
1880 0 1880 0 0 -75 0 -75 -2410 0 -2410 0 0 75 0 75 455 0 455 0 0 75 0 75
-530 0 -530 0 0 -1650z m4970 75 l0 -1125 -230 0 -230 0 0 -75 0 -75 230 0
230 0 0 -150 0 -150 -2410 0 -2410 0 0 150 0 150 1955 0 1955 0 0 75 0 75
-1955 0 -1955 0 0 1125 0 1125 2410 0 2410 0 0 -1125z m-1666 -2637 c44 -13
136 -96 136 -123 0 -13 -92 -15 -880 -15 -788 0 -880 2 -880 15 0 25 91 109
130 122 52 16 1438 17 1494 1z"/>
<path d="M310 4135 l0 -75 75 0 75 0 0 75 0 75 -75 0 -75 0 0 -75z"/>
<path d="M610 4135 l0 -75 75 0 75 0 0 75 0 75 -75 0 -75 0 0 -75z"/>
<path d="M1355 3480 l-250 -250 252 -252 253 -253 55 55 55 55 -197 197 -198
198 198 198 197 197 -53 53 c-29 28 -55 52 -57 52 -3 0 -118 -113 -255 -250z"/>
<path d="M3452 3678 l-52 -53 197 -197 198 -198 -198 -198 -197 -197 55 -55
55 -55 253 253 252 252 -250 250 c-137 137 -252 250 -255 250 -3 0 -29 -24
-58 -52z"/>
<path d="M3109 3663 c-116 -271 -399 -941 -399 -946 0 -4 35 -7 79 -7 l78 0
209 491 c115 271 211 496 212 500 2 5 -33 9 -78 9 l-81 0 -20 -47z"/>
<path d="M1890 2785 l0 -75 335 0 335 0 0 75 0 75 -335 0 -335 0 0 -75z"/>
<path d="M4210 2035 l0 -75 75 0 75 0 0 75 0 75 -75 0 -75 0 0 -75z"/>
<path d="M2459 1332 c-34 -17 -65 -44 -84 -71 -28 -39 -30 -50 -30 -126 0 -76
2 -87 30 -126 39 -56 120 -99 184 -99 67 0 147 43 186 98 27 40 30 51 30 127
0 76 -3 87 -30 127 -20 28 -49 52 -84 71 -73 36 -131 36 -202 -1z m149 -142
c47 -44 15 -130 -48 -130 -38 0 -70 34 -70 75 0 41 32 75 70 75 14 0 36 -9 48
-20z"/>
</g>
</svg>
