<?xml version="1.0" standalone="no"?>
<!DOCTYPE svg PUBLIC "-//W3C//DTD SVG 20010904//EN"
 "http://www.w3.org/TR/2001/REC-SVG-20010904/DTD/svg10.dtd">
<svg version="1.0" xmlns="http://www.w3.org/2000/svg"
 width="512.000000pt" height="512.000000pt" viewBox="0 0 512.000000 512.000000"
 preserveAspectRatio="xMidYMid meet">

<g transform="translate(0.000000,512.000000) scale(0.100000,-0.100000)"
fill="#000000" stroke="none">
<path d="M1435 4881 c-71 -18 -131 -66 -169 -136 -20 -38 -21 -54 -24 -400 -2
-198 0 -375 3 -393 13 -70 89 -96 136 -46 l24 26 5 380 c5 361 6 380 24 394
17 12 272 14 1747 14 1685 0 1727 0 1750 -19 l24 -19 3 -1116 2 -1115 -437 -3
c-422 -3 -439 -4 -478 -24 -22 -11 -53 -40 -70 -63 l-30 -43 -3 -174 -4 -174
-321 0 -322 0 0 107 c0 95 -3 114 -26 163 -29 63 -77 121 -130 159 l-35 26
158 495 c87 272 158 501 158 510 0 23 -29 60 -56 70 -28 11 -75 -3 -90 -28 -9
-14 -222 -671 -305 -938 l-19 -61 -72 -5 c-135 -9 -155 -23 -486 -343 l-72
-70 -788 -5 -787 -5 -70 -24 c-241 -81 -407 -241 -486 -468 -31 -92 -192
-1048 -185 -1107 11 -99 90 -185 190 -206 35 -7 299 -10 832 -8 777 3 779 3
819 25 52 28 99 78 122 128 16 36 19 84 23 460 l5 420 250 6 c276 6 303 11
430 77 74 39 108 69 358 309 l159 153 872 2 872 3 49 26 c57 29 110 92 125
149 7 26 9 474 8 1382 l-3 1343 -28 48 c-35 60 -93 102 -158 116 -57 13 -3444
14 -3494 2z m1558 -2587 c86 -29 147 -120 147 -219 0 -83 -31 -123 -263 -344
-308 -295 -321 -301 -680 -301 -232 0 -264 -5 -315 -53 -58 -53 -57 -46 -60
-508 l-3 -426 -25 -24 c-25 -23 -32 -24 -204 -27 l-178 -4 -4 179 c-4 159 -6
183 -26 220 -47 89 -92 103 -348 103 -177 0 -204 2 -204 15 0 9 9 68 21 132
17 95 18 121 8 145 -21 52 -80 64 -123 26 -24 -21 -30 -49 -91 -411 -35 -214
-67 -392 -70 -398 -10 -16 -320 -11 -360 5 -64 27 -64 16 25 541 44 264 88
505 96 535 25 86 74 169 139 236 67 67 125 105 224 143 l66 26 796 5 796 5 46
30 c25 17 124 104 219 195 115 110 185 170 208 177 51 16 110 15 163 -3z
m1967 -138 c0 -118 -1 -127 -24 -153 l-24 -28 -404 0 -403 0 -3 140 c-1 76 0
145 2 152 4 10 91 13 431 13 l425 0 0 -124z m-3736 -1432 c14 -5 16 -30 16
-170 l0 -164 -243 0 c-134 0 -246 2 -249 5 -4 4 32 247 47 313 5 22 6 22 209
22 113 0 211 -3 220 -6z"/>
<path d="M1836 4319 c-35 -28 -36 -80 -1 -114 l24 -25 584 0 c576 0 585 0 611
21 20 16 26 29 26 59 0 30 -6 43 -26 59 -26 21 -35 21 -609 21 -574 0 -583 0
-609 -21z"/>
<path d="M1832 3897 c-27 -29 -28 -77 -3 -108 l19 -24 1377 0 1377 0 19 24
c26 32 25 82 -4 109 l-23 22 -1370 0 -1371 0 -21 -23z"/>
<path d="M1103 3760 c-205 -54 -373 -189 -473 -381 -57 -109 -80 -208 -80
-337 0 -130 18 -209 75 -327 91 -188 248 -321 455 -387 64 -20 95 -23 215 -22
123 0 150 3 217 26 125 42 203 91 303 192 104 104 161 205 195 340 25 97 26
239 4 339 -21 94 -90 236 -153 313 -92 114 -241 207 -389 245 -101 25 -269 25
-369 -1z m326 -155 c192 -46 350 -195 417 -395 28 -82 26 -252 -3 -345 -54
-173 -205 -324 -378 -378 -98 -31 -252 -31 -350 0 -169 53 -316 197 -375 366
-30 86 -37 230 -16 321 48 204 222 382 422 430 78 19 204 19 283 1z"/>
<path d="M2344 3496 c-33 -15 -44 -33 -44 -72 0 -77 28 -84 340 -84 313 0 340
7 340 85 0 39 -16 62 -51 74 -49 17 -545 14 -585 -3z"/>
<path d="M3844 3500 c-28 -11 -54 -48 -54 -77 0 -12 11 -35 24 -50 l24 -28
372 0 372 0 24 28 c30 36 30 68 0 104 l-24 28 -359 2 c-197 1 -368 -2 -379 -7z"/>
<path d="M3653 2933 c-29 -6 -63 -49 -63 -79 0 -12 11 -36 24 -51 l24 -28 451
0 450 0 23 22 c30 30 30 86 0 116 l-23 22 -432 1 c-237 1 -442 0 -454 -3z"/>
<path d="M3177 1528 c-35 -27 -37 -62 -37 -646 0 -622 0 -615 53 -640 39 -19
78 -4 99 39 17 31 18 81 18 605 0 589 -2 624 -40 644 -26 14 -73 12 -93 -2z"/>
</g>
</svg>
