<?xml version="1.0" standalone="no"?>
<!DOCTYPE svg PUBLIC "-//W3C//DTD SVG 20010904//EN"
 "http://www.w3.org/TR/2001/REC-SVG-20010904/DTD/svg10.dtd">
<svg version="1.0" xmlns="http://www.w3.org/2000/svg"
 width="360.000000pt" height="360.000000pt" viewBox="0 0 360.000000 360.000000"
 preserveAspectRatio="xMidYMid meet">

<g transform="translate(0.000000,360.000000) scale(0.100000,-0.100000)"
fill="#000000" stroke="none">
<path d="M1255 3231 c-72 -18 -123 -60 -150 -123 -13 -33 -15 -184 -15 -1308
0 -1124 2 -1275 15 -1308 20 -47 50 -78 100 -105 40 -22 46 -22 595 -22 549 0
555 0 595 22 50 27 80 58 100 105 13 33 15 184 15 1308 0 1124 -2 1275 -15
1308 -20 47 -50 78 -100 105 -39 22 -48 22 -575 24 -294 1 -548 -2 -565 -6z
m257 -93 l3 -33 285 0 285 0 3 33 3 32 128 0 c116 0 131 -2 161 -23 19 -12 43
-38 54 -57 21 -35 21 -45 24 -1263 1 -811 -1 -1242 -8 -1267 -14 -51 -46 -89
-94 -111 -38 -17 -76 -19 -556 -19 -480 0 -518 2 -556 19 -48 22 -80 60 -94
111 -7 25 -9 456 -8 1267 3 1218 3 1228 24 1263 11 19 35 45 54 57 30 21 45
23 161 23 l128 0 3 -32z"/>
</g>
</svg>
